<svg width="278" height="93" viewBox="0 0 278 93" fill="none" xmlns="http://www.w3.org/2000/svg">
<path d="M46.248 61.366H31.616L29.446 68H15L31.058 24.104H46.93L62.926 68H48.418L46.248 61.366ZM42.9 51.012L38.932 38.798L34.964 51.012H42.9ZM79.8171 24.104V68H66.0531V24.104H79.8171ZM123.477 39.108C122.939 38.24 122.175 37.5787 121.183 37.124C120.191 36.628 118.992 36.38 117.587 36.38C114.941 36.38 112.895 37.248 111.449 38.984C110.002 40.6787 109.279 43.014 109.279 45.99C109.279 49.4207 110.085 51.9833 111.697 53.678C113.309 55.3727 115.789 56.22 119.137 56.22C122.319 56.22 124.882 54.9387 126.825 52.376H115.851V42.642H138.233V56.406C136.331 59.6713 133.707 62.482 130.359 64.838C127.011 67.1527 122.774 68.31 117.649 68.31C113.102 68.31 109.134 67.38 105.745 65.52C102.397 63.6187 99.8134 60.9733 97.9948 57.584C96.2174 54.1947 95.3288 50.33 95.3288 45.99C95.3288 41.65 96.2174 37.7853 97.9948 34.396C99.8134 31.0067 102.397 28.382 105.745 26.522C109.093 24.6207 113.019 23.67 117.525 23.67C123.27 23.67 127.941 25.0547 131.537 27.824C135.174 30.5933 137.323 34.3547 137.985 39.108H123.477ZM156.954 39.48C158.359 37.4547 160.075 35.8427 162.1 34.644C164.125 33.404 166.233 32.784 168.424 32.784V47.478H164.518C161.914 47.478 159.992 47.9327 158.752 48.842C157.553 49.7513 156.954 51.3633 156.954 53.678V68H143.19V33.032H156.954V39.48ZM170.271 50.516C170.271 46.8373 170.891 43.6547 172.131 40.968C173.413 38.24 175.149 36.1733 177.339 34.768C179.53 33.3213 181.989 32.598 184.717 32.598C186.991 32.598 188.954 33.0733 190.607 34.024C192.261 34.9333 193.521 36.194 194.389 37.806V33.032H208.091V68H194.389V63.226C193.521 64.838 192.261 66.1193 190.607 67.07C188.954 67.9793 186.991 68.434 184.717 68.434C181.989 68.434 179.53 67.7313 177.339 66.326C175.149 64.8793 173.413 62.8127 172.131 60.126C170.891 57.398 170.271 54.1947 170.271 50.516ZM194.389 50.516C194.389 48.656 193.914 47.2093 192.963 46.176C192.013 45.1427 190.793 44.626 189.305 44.626C187.817 44.626 186.598 45.1427 185.647 46.176C184.697 47.2093 184.221 48.656 184.221 50.516C184.221 52.376 184.697 53.8227 185.647 54.856C186.598 55.8893 187.817 56.406 189.305 56.406C190.793 56.406 192.013 55.8893 192.963 54.856C193.914 53.8227 194.389 52.376 194.389 50.516ZM260.958 32.784C265.422 32.784 268.873 34.1273 271.312 36.814C273.792 39.5007 275.032 43.138 275.032 47.726V68H261.33V49.462C261.33 47.974 260.875 46.8167 259.966 45.99C259.098 45.122 257.92 44.688 256.432 44.688C254.903 44.688 253.704 45.122 252.836 45.99C251.968 46.8167 251.534 47.974 251.534 49.462V68H237.832V49.462C237.832 47.974 237.377 46.8167 236.468 45.99C235.6 45.122 234.422 44.688 232.934 44.688C231.405 44.688 230.206 45.122 229.338 45.99C228.47 46.8167 228.036 47.974 228.036 49.462V68H214.272V33.032H228.036V37.744C229.028 36.256 230.371 35.0573 232.066 34.148C233.802 33.2387 235.827 32.784 238.142 32.784C240.663 32.784 242.895 33.342 244.838 34.458C246.781 35.5327 248.331 37.062 249.488 39.046C250.769 37.2273 252.402 35.7393 254.386 34.582C256.37 33.3833 258.561 32.784 260.958 32.784Z" fill="white"/>
<path fill-rule="evenodd" clip-rule="evenodd" d="M11.8074 18.4741L14.2522 11.1396H17.4145L19.8593 18.4741L27.1937 20.9189V24.0811L19.8593 26.526L17.4145 33.8604H14.2522L11.8074 26.526L4.47295 24.0811V20.9189L11.8074 18.4741ZM15.8333 16.9371L14.7061 20.3187L13.652 21.3728L10.2705 22.5L13.652 23.6272L14.7061 24.6813L15.8333 28.0629L16.9605 24.6813L18.0146 23.6272L21.3962 22.5L18.0146 21.3728L16.9605 20.3187L15.8333 16.9371Z" fill="white"/>
<path fill-rule="evenodd" clip-rule="evenodd" d="M26.9178 8.58443L28.218 4.68378H30.1154L31.4156 8.58443L35.3162 9.88465V11.782L31.4156 13.0822L30.1154 16.9829H28.218L26.9178 13.0822L23.0171 11.782V9.88465L26.9178 8.58443Z" fill="white"/>
</svg>
